<?xml version="1.0" encoding="UTF-8" standalone="no"?>
<!DOCTYPE svg PUBLIC "-//W3C//DTD SVG 1.1//EN"
 "http://www.w3.org/Graphics/SVG/1.1/DTD/svg11.dtd">
<!-- Generated by graphviz version 2.38.0 (20140413.2041)
 -->
<!-- Title: G Pages: 1 -->
<svg width="626pt" height="888pt"
     viewBox="0.00 0.00 626.00 888.00" xmlns="http://www.w3.org/2000/svg">
<g id="graph0" class="graph" transform="scale(1 1) rotate(0) translate(4 884)">
<title>G</title>
<polygon fill="white" stroke="none" points="-4,4 -4,-884 622,-884 622,4 -4,4"/>
<g id="clust1" class="cluster"><title>cluster_Global</title>
<path fill="none" stroke="gray" d="M20,-8C20,-8 598,-8 598,-8 604,-8 610,-14 610,-20 610,-20 610,-860 610,-860 610,-866 604,-872 598,-872 598,-872 20,-872 20,-872 14,-872 8,-866 8,-860 8,-860 8,-20 8,-20 8,-14 14,-8 20,-8"/>
<text text-anchor="middle" x="309" y="-859.2" font-family="Times New Roman,serif" font-size="11.00" fill="gray">Global</text>
</g>
<g id="clust2" class="cluster"><title>cluster_\Alorel</title>
<path fill="none" stroke="gray" d="M28,-16C28,-16 590,-16 590,-16 596,-16 602,-22 602,-28 602,-28 602,-832 602,-832 602,-838 596,-844 590,-844 590,-844 28,-844 28,-844 22,-844 16,-838 16,-832 16,-832 16,-28 16,-28 16,-22 22,-16 28,-16"/>
<text text-anchor="middle" x="309" y="-831.2" font-family="Times New Roman,serif" font-size="11.00" fill="gray">Alorel</text>
</g>
<g id="clust3" class="cluster"><title>cluster_\Alorel\Dropbox</title>
<path fill="none" stroke="gray" d="M36,-24C36,-24 582,-24 582,-24 588,-24 594,-30 594,-36 594,-36 594,-804 594,-804 594,-810 588,-816 582,-816 582,-816 36,-816 36,-816 30,-816 24,-810 24,-804 24,-804 24,-36 24,-36 24,-30 30,-24 36,-24"/>
<text text-anchor="middle" x="309" y="-803.2" font-family="Times New Roman,serif" font-size="11.00" fill="gray">Dropbox</text>
</g>
<g id="clust4" class="cluster"><title>cluster_\Alorel\Dropbox\Operation</title>
<path fill="none" stroke="gray" d="M453,-490C453,-490 542,-490 542,-490 548,-490 554,-496 554,-502 554,-502 554,-776 554,-776 554,-782 548,-788 542,-788 542,-788 453,-788 453,-788 447,-788 441,-782 441,-776 441,-776 441,-502 441,-502 441,-496 447,-490 453,-490"/>
<text text-anchor="middle" x="497.5" y="-775.2" font-family="Times New Roman,serif" font-size="11.00" fill="gray">Operation</text>
</g>
<g id="clust5" class="cluster"><title>cluster_\Alorel\Dropbox\Operation\Files</title>
<path fill="none" stroke="gray" d="M461,-498C461,-498 534,-498 534,-498 540,-498 546,-504 546,-510 546,-510 546,-748 546,-748 546,-754 540,-760 534,-760 534,-760 461,-760 461,-760 455,-760 449,-754 449,-748 449,-748 449,-510 449,-510 449,-504 455,-498 461,-498"/>
<text text-anchor="middle" x="497.5" y="-747.2" font-family="Times New Roman,serif" font-size="11.00" fill="gray">Files</text>
</g>
<g id="clust6" class="cluster"><title>cluster_\Alorel\Dropbox\Operation\Files\UploadSession</title>
<path fill="none" stroke="gray" d="M469,-552C469,-552 526,-552 526,-552 532,-552 538,-558 538,-564 538,-564 538,-720 538,-720 538,-726 532,-732 526,-732 526,-732 469,-732 469,-732 463,-732 457,-726 457,-720 457,-720 457,-564 457,-564 457,-558 463,-552 469,-552"/>
<text text-anchor="middle" x="497.5" y="-719.2" font-family="Times New Roman,serif" font-size="11.00" fill="gray">UploadSession</text>
</g>
<g id="clust7" class="cluster"><title>cluster_\Alorel\Dropbox\OptionBuilder</title>
<path fill="none" stroke="gray" d="M421,-32C421,-32 574,-32 574,-32 580,-32 586,-38 586,-44 586,-44 586,-470 586,-470 586,-476 580,-482 574,-482 574,-482 421,-482 421,-482 415,-482 409,-476 409,-470 409,-470 409,-44 409,-44 409,-38 415,-32 421,-32"/>
<text text-anchor="middle" x="497.5" y="-469.2" font-family="Times New Roman,serif" font-size="11.00" fill="gray">OptionBuilder</text>
</g>
<g id="clust8" class="cluster"><title>cluster_\Alorel\Dropbox\OptionBuilder\Mixins</title>
<path fill="none" stroke="gray" d="M429,-166C429,-166 566,-166 566,-166 572,-166 578,-172 578,-178 578,-178 578,-442 578,-442 578,-448 572,-454 566,-454 566,-454 429,-454 429,-454 423,-454 417,-448 417,-442 417,-442 417,-178 417,-178 417,-172 423,-166 429,-166"/>
<text text-anchor="middle" x="497.5" y="-441.2" font-family="Times New Roman,serif" font-size="11.00" fill="gray">Mixins</text>
</g>
<g id="clust9" class="cluster"><title>cluster_\Alorel\Dropbox\OptionBuilder\UploadSession</title>
<path fill="none" stroke="gray" d="M452.5,-86C452.5,-86 542.5,-86 542.5,-86 548.5,-86 554.5,-92 554.5,-98 554.5,-98 554.5,-146 554.5,-146 554.5,-152 548.5,-158 542.5,-158 542.5,-158 452.5,-158 452.5,-158 446.5,-158 440.5,-152 440.5,-146 440.5,-146 440.5,-98 440.5,-98 440.5,-92 446.5,-86 452.5,-86"/>
<text text-anchor="middle" x="497.5" y="-145.2" font-family="Times New Roman,serif" font-size="11.00" fill="gray">UploadSession</text>
</g>
<g id="clust10" class="cluster"><title>cluster_\Alorel\Dropbox\OperationKind</title>
<path fill="none" stroke="gray" d="M192,-579C192,-579 349,-579 349,-579 355,-579 361,-585 361,-591 361,-591 361,-639 361,-639 361,-645 355,-651 349,-651 349,-651 192,-651 192,-651 186,-651 180,-645 180,-639 180,-639 180,-591 180,-591 180,-585 186,-579 192,-579"/>
<text text-anchor="middle" x="270.5" y="-638.2" font-family="Times New Roman,serif" font-size="11.00" fill="gray">OperationKind</text>
</g>
<!-- \\Alorel\\Dropbox\\Operation\\Files\\UploadSession\\Append -->
<g id="node1" class="node"><title>\\Alorel\\Dropbox\\Operation\\Files\\UploadSession\\Append</title>
<polygon fill="none" stroke="black" points="526,-704 469,-704 469,-668 526,-668 526,-704"/>
<text text-anchor="middle" x="497.5" y="-683.2" font-family="Courier,monospace" font-size="11.00">Append</text>
</g>
<!-- \\Alorel\\Dropbox\\OperationKind\\ContentUploadOperation -->
<g id="node12" class="node"><title>\\Alorel\\Dropbox\\OperationKind\\ContentUploadOperation</title>
<polygon fill="none" stroke="black" points="353,-623 188,-623 188,-587 353,-587 353,-623"/>
<text text-anchor="start" x="236.5" y="-608.2" font-family="Courier,monospace" font-size="11.00">«abstract»</text>
<text text-anchor="start" x="196" y="-596.2" font-family="Courier,monospace" font-size="11.00">ContentUploadOperation</text>
</g>
<!-- \\Alorel\\Dropbox\\Operation\\Files\\UploadSession\\Append&#45;&gt;\\Alorel\\Dropbox\\OperationKind\\ContentUploadOperation -->
<g id="edge1" class="edge"><title>\\Alorel\\Dropbox\\Operation\\Files\\UploadSession\\Append&#45;&gt;\\Alorel\\Dropbox\\OperationKind\\ContentUploadOperation</title>
<path fill="none" stroke="black" d="M468.741,-678.013C451.451,-672.896 428.806,-665.934 409,-659 380.882,-649.156 349.972,-637.128 324.592,-626.924"/>
<polygon fill="none" stroke="black" points="325.736,-623.611 315.153,-623.111 323.114,-630.101 325.736,-623.611"/>
</g>
<!-- \\Alorel\\Dropbox\\Operation\\Files\\UploadSession\\Start -->
<g id="node2" class="node"><title>\\Alorel\\Dropbox\\Operation\\Files\\UploadSession\\Start</title>
<polygon fill="none" stroke="black" points="524.5,-650 470.5,-650 470.5,-614 524.5,-614 524.5,-650"/>
<text text-anchor="middle" x="497.5" y="-629.2" font-family="Courier,monospace" font-size="11.00">Start</text>
</g>
<!-- \\Alorel\\Dropbox\\Operation\\Files\\UploadSession\\Start&#45;&gt;\\Alorel\\Dropbox\\OperationKind\\ContentUploadOperation -->
<g id="edge2" class="edge"><title>\\Alorel\\Dropbox\\Operation\\Files\\UploadSession\\Start&#45;&gt;\\Alorel\\Dropbox\\OperationKind\\ContentUploadOperation</title>
<path fill="none" stroke="black" d="M470.249,-628.85C443.965,-625.696 401.983,-620.658 363.362,-616.023"/>
<polygon fill="none" stroke="black" points="363.448,-612.509 353.102,-614.792 362.613,-619.459 363.448,-612.509"/>
</g>
<!-- \\Alorel\\Dropbox\\Operation\\Files\\UploadSession\\Finish -->
<g id="node3" class="node"><title>\\Alorel\\Dropbox\\Operation\\Files\\UploadSession\\Finish</title>
<polygon fill="none" stroke="black" points="526,-596 469,-596 469,-560 526,-560 526,-596"/>
<text text-anchor="middle" x="497.5" y="-575.2" font-family="Courier,monospace" font-size="11.00">Finish</text>
</g>
<!-- \\Alorel\\Dropbox\\Operation\\Files\\UploadSession\\Finish&#45;&gt;\\Alorel\\Dropbox\\OperationKind\\ContentUploadOperation -->
<g id="edge5" class="edge"><title>\\Alorel\\Dropbox\\Operation\\Files\\UploadSession\\Finish&#45;&gt;\\Alorel\\Dropbox\\OperationKind\\ContentUploadOperation</title>
<path fill="none" stroke="black" d="M468.911,-581.311C442.519,-584.478 401.222,-589.433 363.208,-593.995"/>
<polygon fill="none" stroke="black" points="362.62,-590.54 353.108,-595.207 363.454,-597.491 362.62,-590.54"/>
</g>
<!-- \\Alorel\\Dropbox\\Operation\\Files\\Upload -->
<g id="node4" class="node"><title>\\Alorel\\Dropbox\\Operation\\Files\\Upload</title>
<polygon fill="none" stroke="black" points="526,-542 469,-542 469,-506 526,-506 526,-542"/>
<text text-anchor="middle" x="497.5" y="-521.2" font-family="Courier,monospace" font-size="11.00">Upload</text>
</g>
<!-- \\Alorel\\Dropbox\\Operation\\Files\\Upload&#45;&gt;\\Alorel\\Dropbox\\OperationKind\\ContentUploadOperation -->
<g id="edge6" class="edge"><title>\\Alorel\\Dropbox\\Operation\\Files\\Upload&#45;&gt;\\Alorel\\Dropbox\\OperationKind\\ContentUploadOperation</title>
<path fill="none" stroke="black" d="M468.781,-528.916C451.099,-532.694 428.017,-538.84 409,-548 387.629,-558.294 385.236,-569.351 361.12,-582.343"/>
<polygon fill="none" stroke="black" points="359.464,-579.256 352.049,-586.824 362.565,-585.532 359.464,-579.256"/>
</g>
<!-- \\Alorel\\Dropbox\\OptionBuilder\\Mixins\\WriteModeTrait -->
<g id="node5" class="node"><title>\\Alorel\\Dropbox\\OptionBuilder\\Mixins\\WriteModeTrait</title>
<polygon fill="none" stroke="black" points="553,-426 442,-426 442,-390 553,-390 553,-426"/>
<text text-anchor="middle" x="497.5" y="-405.2" font-family="Courier,monospace" font-size="11.00">WriteModeTrait</text>
</g>
<!-- \\Alorel\\Dropbox\\OptionBuilder\\Mixins\\ClientModifiedTrait -->
<g id="node6" class="node"><title>\\Alorel\\Dropbox\\OptionBuilder\\Mixins\\ClientModifiedTrait</title>
<polygon fill="none" stroke="black" points="570,-372 425,-372 425,-336 570,-336 570,-372"/>
<text text-anchor="middle" x="497.5" y="-351.2" font-family="Courier,monospace" font-size="11.00">ClientModifiedTrait</text>
</g>
<!-- \\Alorel\\Dropbox\\OptionBuilder\\Mixins\\AutoRenameTrait -->
<g id="node7" class="node"><title>\\Alorel\\Dropbox\\OptionBuilder\\Mixins\\AutoRenameTrait</title>
<polygon fill="none" stroke="black" points="556.5,-318 438.5,-318 438.5,-282 556.5,-282 556.5,-318"/>
<text text-anchor="middle" x="497.5" y="-297.2" font-family="Courier,monospace" font-size="11.00">AutoRenameTrait</text>
</g>
<!-- \\Alorel\\Dropbox\\OptionBuilder\\Mixins\\CloseTrait -->
<g id="node8" class="node"><title>\\Alorel\\Dropbox\\OptionBuilder\\Mixins\\CloseTrait</title>
<polygon fill="none" stroke="black" points="539.5,-264 455.5,-264 455.5,-228 539.5,-228 539.5,-264"/>
<text text-anchor="middle" x="497.5" y="-243.2" font-family="Courier,monospace" font-size="11.00">CloseTrait</text>
</g>
<!-- \\Alorel\\Dropbox\\OptionBuilder\\Mixins\\MuteTrait -->
<g id="node9" class="node"><title>\\Alorel\\Dropbox\\OptionBuilder\\Mixins\\MuteTrait</title>
<polygon fill="none" stroke="black" points="536,-210 459,-210 459,-174 536,-174 536,-210"/>
<text text-anchor="middle" x="497.5" y="-189.2" font-family="Courier,monospace" font-size="11.00">MuteTrait</text>
</g>
<!-- \\Alorel\\Dropbox\\OptionBuilder\\UploadSession\\StartOptions -->
<g id="node10" class="node"><title>\\Alorel\\Dropbox\\OptionBuilder\\UploadSession\\StartOptions</title>
<polygon fill="none" stroke="black" points="546.5,-130 448.5,-130 448.5,-94 546.5,-94 546.5,-130"/>
<text text-anchor="middle" x="497.5" y="-109.2" font-family="Courier,monospace" font-size="11.00">StartOptions</text>
</g>
<!-- \\Alorel\\Dropbox\\Options -->
<g id="node13" class="node"><title>\\Alorel\\Dropbox\\Options</title>
<polygon fill="none" stroke="black" points="312.5,-103 228.5,-103 228.5,-67 312.5,-67 312.5,-103"/>
<text text-anchor="start" x="236.5" y="-88.2" font-family="Courier,monospace" font-size="11.00">«abstract»</text>
<text text-anchor="start" x="246.5" y="-76.2" font-family="Courier,monospace" font-size="11.00">Options</text>
</g>
<!-- \\Alorel\\Dropbox\\OptionBuilder\\UploadSession\\StartOptions&#45;&gt;\\Alorel\\Dropbox\\Options -->
<g id="edge3" class="edge"><title>\\Alorel\\Dropbox\\OptionBuilder\\UploadSession\\StartOptions&#45;&gt;\\Alorel\\Dropbox\\Options</title>
<path fill="none" stroke="black" d="M448.232,-106.208C411.289,-101.775 360.448,-95.6738 322.778,-91.1533"/>
<polygon fill="none" stroke="black" points="322.87,-87.6394 312.524,-89.9229 322.036,-94.5895 322.87,-87.6394"/>
</g>
<!-- \\Alorel\\Dropbox\\OptionBuilder\\UploadOptions -->
<g id="node11" class="node"><title>\\Alorel\\Dropbox\\OptionBuilder\\UploadOptions</title>
<polygon fill="none" stroke="black" points="549.5,-76 445.5,-76 445.5,-40 549.5,-40 549.5,-76"/>
<text text-anchor="middle" x="497.5" y="-55.2" font-family="Courier,monospace" font-size="11.00">UploadOptions</text>
</g>
<!-- \\Alorel\\Dropbox\\OptionBuilder\\UploadOptions&#45;&gt;\\Alorel\\Dropbox\\Options -->
<g id="edge7" class="edge"><title>\\Alorel\\Dropbox\\OptionBuilder\\UploadOptions&#45;&gt;\\Alorel\\Dropbox\\Options</title>
<path fill="none" stroke="black" d="M445.444,-64.1267C408.704,-68.5355 359.353,-74.4576 322.603,-78.8676"/>
<polygon fill="none" stroke="black" points="322.104,-75.4023 312.593,-80.0689 322.938,-82.3524 322.104,-75.4023"/>
</g>
<!-- \\Alorel\\Dropbox\\Operation -->
<g id="node14" class="node"><title>\\Alorel\\Dropbox\\Operation</title>
<polygon fill="none" stroke="black" points="116,-623 32,-623 32,-587 116,-587 116,-623"/>
<text text-anchor="start" x="40" y="-608.2" font-family="Courier,monospace" font-size="11.00">«abstract»</text>
<text text-anchor="start" x="43.5" y="-596.2" font-family="Courier,monospace" font-size="11.00">Operation</text>
</g>
<!-- \\Alorel\\Dropbox\\OperationKind\\ContentUploadOperation&#45;&gt;\\Alorel\\Dropbox\\Operation -->
<g id="edge4" class="edge"><title>\\Alorel\\Dropbox\\OperationKind\\ContentUploadOperation&#45;&gt;\\Alorel\\Dropbox\\Operation</title>
<path fill="none" stroke="black" d="M187.86,-605C166.984,-605 145.122,-605 126.259,-605"/>
<polygon fill="none" stroke="black" points="126.114,-601.5 116.114,-605 126.114,-608.5 126.114,-601.5"/>
</g>
</g>
</svg>
